<?xml version="1.0" standalone="no"?>
<!DOCTYPE svg PUBLIC "-//W3C//DTD SVG 1.1//EN" "http://www.w3.org/Graphics/SVG/1.1/DTD/svg11.dtd" >
<!--
2013-9-30: Created.
-->
<svg>
<metadata>
Created by iconfont
</metadata>
<defs>

<font id="iconfont" horiz-adv-x="1024" >
  <font-face
    font-family="iconfont"
    font-weight="500"
    font-stretch="normal"
    units-per-em="1024"
    ascent="896"
    descent="-128"
  />
    <missing-glyph />
    
    <glyph glyph-name="x" unicode="x" horiz-adv-x="1001"
d="M281 543q-27 -1 -53 -1h-83q-18 0 -36.5 -6t-32.5 -18.5t-23 -32t-9 -45.5v-76h912v41q0 16 -0.5 30t-0.5 18q0 13 -5 29t-17 29.5t-31.5 22.5t-49.5 9h-133v-97h-438v97zM955 310v-52q0 -23 0.5 -52t0.5 -58t-10.5 -47.5t-26 -30t-33 -16t-31.5 -4.5q-14 -1 -29.5 -0.5
t-29.5 0.5h-32l-45 128h-439l-44 -128h-29h-34q-20 0 -45 1q-25 0 -41 9.5t-25.5 23t-13.5 29.5t-4 30v167h911zM163 247q-12 0 -21 -8.5t-9 -21.5t9 -21.5t21 -8.5q13 0 22 8.5t9 21.5t-9 21.5t-22 8.5zM316 123q-8 -26 -14 -48q-5 -19 -10.5 -37t-7.5 -25t-3 -15t1 -14.5
t9.5 -10.5t21.5 -4h37h67h81h80h64h36q23 0 34 12t2 38q-5 13 -9.5 30.5t-9.5 34.5q-5 19 -11 39h-368zM336 498v228q0 11 2.5 23t10 21.5t20.5 15.5t34 6h188q31 0 51.5 -14.5t20.5 -52.5v-227h-327z" />
    

    
    <glyph glyph-name="sousuo" unicode="&#58881;" d="M937.728-26.5536 723.5072 189.4643c-2.4934 2.4996-5.248 4.4083-7.8787 6.4881 36.1861 55.9862 57.3164 122.6742 57.3164 194.5078 0 197.3463-158.6268 357.3023-354.43 357.3023-195.6936 0-354.43-159.956-354.43-357.3023 0-197.374 158.7364-357.2951 354.43-357.2951 71.2274 0 137.4546 21.3576 193.0762 57.8458 2.0255-2.7136 3.884-5.4129 6.3365-7.893l214.2484-216.0445c14.6278-14.7036 33.6783-22.0324 52.7565-22.0324 19.0915 0 38.1553 7.3277 52.7698 21.9976C966.8055-103.5523 966.8055-55.9404 937.728-26.5536M418.5149 145.9924c-133.6812 0-242.4986 109.6847-242.4986 244.4677 0 134.7625 108.8184 244.4759 242.4986 244.4759s242.4986-109.7134 242.4986-244.4759C661.0135 255.6782 552.1951 145.9924 418.5149 145.9924"  horiz-adv-x="1024" />

    
    <glyph glyph-name="shangchuan" unicode="&#58893;" d="M407.8694 446.8334c0 0-56.3886 54.2362-132.9039 9.9389-68.4595-42.2851-56.3722-119.679-56.3722-119.679S66.5119 307.5469 66.5119 152.4989c3.412-154.8298 165.1661-156.3873 165.1661-156.3873h254.5664V158.04902399999992h-80.118784l134.6662 144.8909 134.6632-144.8909h-80.116736v-161.937408H826.6885120000001c0 0 150.5393-0.1526 171.6849 147.1355 10.069 161.0865-145.5073 192.8356-145.5073 192.8356s17.706 238.4589-200.7634 265.642C464.8407 620.852 407.8694 446.8334 407.8694 446.8334z"  horiz-adv-x="1024" />

    
    <glyph glyph-name="xiasanjiao" unicode="&#58884;" d="M256.204389 427.69393 512.410832 107.434592 768.617276 427.69393Z"  horiz-adv-x="1024" />

    
    <glyph glyph-name="erweima" unicode="&#58897;" d="M91.74016 747.935488l359.402496 0c36.543488-3.56352 27.731968-66.9952 27.731968-108.20608l0-196.197376c0-42.645504 8.14592-94.910464-20.498432-107.02336-18.65728-7.883776-68.72576-2.37568-92.86656-2.37568L174.963712 334.132992c-44.053504 0-104.198144-10.361856-110.959616 27.348992L64.004096 720.586496C68.93056 733.96096 77.592576 743.654144 91.74016 747.935488L91.74016 747.935488 91.74016 747.935488zM141.192192 667.077376l0-255.653888 259.294208 0L400.4864 670.646016 142.400512 670.646016C140.990464 670.449408 141.084672 668.765952 141.192192 667.077376L141.192192 667.077376 141.192192 667.077376zM574.15168 747.935488l359.401472 0c14.660608-5.362688 24.732672-15.250432 27.737088-32.105472l0-349.592576c-3.290112-14.528512-10.9824-26.929152-25.326592-30.912512-23.43936-6.50752-62.398464-1.19296-90.451968-1.19296L660.988928 334.131968c-27.828224 0-69.0688-5.777408-91.657216 1.19296-31.894528 9.836544-22.913024 71.21408-22.913024 114.152448L546.418688 632.596224C546.418688 682.166016 535.380992 741.009152 574.15168 747.935488L574.15168 747.935488 574.15168 747.935488zM623.601664 667.077376l0-255.653888 259.300352 0L882.902016 670.646016 624.806912 670.646016C623.404032 670.449408 623.49824 668.765952 623.601664 667.077376L623.601664 667.077376 623.601664 667.077376zM259.381248 592.16256c36.11136 6.721536 64.50688-17.335296 65.127424-49.936384 0.807936-43.00288-43.732992-66.619392-78.391296-48.756736C206.457856 513.907456 209.065984 582.805248 259.381248 592.16256L259.381248 592.16256 259.381248 592.16256zM741.79072 592.16256c85.066752 15.671296 83.434496-117.146624 0-103.445504C688.699392 497.430272 686.98624 582.07104 741.79072 592.16256L741.79072 592.16256 741.79072 592.16256zM448.733184-148.644096 92.946432-148.644096c-14.772224 4.46976-24.745984 13.657088-28.942336 28.540928L64.004096 237.814528c3.51232 10.476544 11.619328 22.693888 24.118272 26.160128 23.609344 6.550528 62.171136 1.191936 90.45504 1.191936l184.517632 0c27.273216 0 66.962432 5.999616 91.661312-1.191936 33.417216-9.721856 24.119296-70.106112 24.119296-112.96256l0-189.065216C478.874624-84.306176 488.98048-144.512256 448.733184-148.644096L448.733184-148.644096 448.733184-148.644096zM141.192192 184.30848l0-255.659008 259.294208 0L400.4864 187.878144 142.400512 187.878144C140.990464 187.671296 141.084672 185.99296 141.192192 184.30848L141.192192 184.30848 141.192192 184.30848zM961.289216 233.058048l0-99.881984c-2.811904-33.6896-0.402432-72.534016-1.201152-108.207104L703.199232 24.96896l0 58.261504c-24.123392 2.782208-53.467136 0.402432-79.594496 1.197056-2.816-75.312128-0.401408-155.771904-1.209344-233.066496l-47.036416 0c-40.440832 7.996416-28.942336 67.82464-28.942336 115.344384L546.41664 151.012096c0 27.712512-5.692416 69.265408 1.205248 91.563008 8.229888 26.604544 43.902976 22.592512 79.601664 22.592512l174.869504 0 0-158.147584 80.806912 0c0.79872 52.318208-1.606656 107.809792 1.201152 158.147584C922.988544 267.435776 959.007744 266.875648 961.289216 233.058048L961.289216 233.058048 961.289216 233.058048zM265.412608 110.587648c38.561792 4.20864 70.432768-32.335872 55.48032-72.543232-20.738048-55.723008-119.872512-34.77504-101.308416 35.677184C224.710656 93.196032 239.540224 107.758336 265.412608 110.587648L265.412608 110.587648 265.412608 110.587648zM790.035456-148.644096l-86.836224 0c0.802816 30.528512-1.606656 64.218112 1.209344 92.754944l85.62688 0L790.035456-148.644096 790.035456-148.644096 790.035456-148.644096zM961.289216-55.889152l0-60.6464c-3.3536-16.905216-13.37856-27.229184-28.94336-32.105472l-61.507584 0c0.802816 30.524416-1.606656 64.214016 1.209344 92.750848L961.289216-55.890176 961.289216-55.889152 961.289216-55.889152zM961.289216-55.889152"  horiz-adv-x="1024" />

    
    <glyph glyph-name="shuaxin" unicode="&#58887;" d="M676.345104 62.566356c-49.813517-35.343973-108.117753-53.070706-167.735968-52.261271-7.878757 0.088004-15.714534 0.503467-23.462303 1.181919-3.151912 0.305969-6.302801 0.831948-9.498717 1.224898-6.084828 0.831948-12.168633 1.662873-18.078468 2.823302-3.67689 0.700965-7.266795 1.641383-10.855677 2.494821-5.821827 1.378393-11.599651 2.7793-17.29049 4.486174-2.713919 0.853437-5.383834 1.838881-8.097754 2.75781-6.521798 2.210341-13.044619 4.507664-19.391424 7.199982-1.443944 0.590448-2.844908 1.2689-4.245871 1.925862-7.440764 3.304256-14.751563 6.762007-21.842342 10.657734-0.349985 0.176009-0.612986 0.328481-0.962971 0.503467-23.98728 13.32754-45.91763 29.982872-65.177042 49.438992-0.305981 0.306992-0.612986 0.657986-0.918967 1.006933-5.99682 6.062066-11.686636 12.4301-17.114474 19.039635-1.137963 1.423419-2.232946 2.932796-3.370909 4.376681-39.175813 49.613978-62.813108 112.403023-62.813108 180.706665l66.447017 0c1.706945 0 3.369885 0.918929 4.245871 2.538823 0.874963 1.597381 0.744997 3.501754-0.218996 4.924149L184.298858 477.183422c-0.874963 1.312902-2.352677 2.188852-4.038132 2.188852-1.662941 0-3.151912-0.874927-4.026875-2.188852L64.570197 307.616468c-0.94148-1.444908-1.093959-3.326768-0.218996-4.945639s2.538927-2.538823 4.245871-2.538823l66.447017 0c0-80.296791 24.731254-154.729014 66.720251-216.270649 0.524978-0.853437 0.874963-1.772366 1.444968-2.625804 4.37686-6.302543 9.191713-12.101619 13.875577-18.055215 1.706945-2.254344 3.369885-4.574179 5.164838-6.78452 6.871783-8.448416 14.182582-16.370853 21.66735-24.139793 0.743974-0.766456 1.400964-1.531889 2.100934-2.210341 25.213251-25.561166 53.70838-47.096644 84.743458-64.299445 0.787978-0.502443 1.575956-0.984421 2.450919-1.443885 8.929736-4.858658 18.121449-9.257851 27.445173-13.415544 2.31993-1.00591 4.551852-2.122337 6.915787-3.130294 7.966765-3.325745 16.152527-6.258541 24.381269-9.060353 3.895886-1.335415 7.747769-2.692319 11.687659-3.917216 7.222791-2.167363 14.576571-3.961218 21.973331-5.756097 4.945841-1.160429 9.805722-2.407839 14.838548-3.370771 2.05693-0.437975 4.026875-1.072425 6.083805-1.399883 7.003795-1.248434 14.007589-1.948375 21.011384-2.824325 2.537903-0.283456 5.033849-0.721431 7.528772-1.00591 12.606626-1.24741 25.125243-2.078335 37.643861-2.078335 76.645705 0 151.408449 23.723308 215.535536 69.222571 20.442402 14.530948 25.432248 43.047422 11.117654 63.773466C725.019634 72.086174 696.78546 77.098327 676.345104 62.566356M888.990705 300.130983c-0.042981 80.056314-24.599242 154.335041-66.403013 215.745692-0.612986 1.050935-1.049955 2.12336-1.706945 3.086291-5.208842 7.506974-10.854654 14.510482-16.502512 21.535479-0.655966 0.853437-1.268952 1.750877-1.968922 2.581802-38.25787 46.987151-86.276434 83.295078-140.728788 107.019409-1.488972 0.656963-2.97692 1.400906-4.464868 2.057869-8.710739 3.611248-17.596471 6.80601-26.526207 9.848299-3.238897 1.072425-6.434813 2.254344-9.717714 3.238764-7.790749 2.38635-15.71351 4.333702-23.681299 6.194072-4.419841 1.028423-8.797724 2.166339-13.262592 3.042289-2.232946 0.437975-4.289875 1.093914-6.478817 1.487887-5.951793 1.050935-11.949636 1.5104-17.902452 2.276856-4.114883 0.524956-8.185762 1.181919-12.344648 1.619894-10.023695 0.940418-19.960405 1.335415-29.896092 1.5104-1.794953 0-3.589905 0.284479-5.384858 0.284479-0.305981 0-0.612986-0.086981-0.961947-0.109494-76.514716-0.065492-151.146472-23.460318-215.185551-68.895113-20.485383-14.487969-25.475228-43.048445-11.161658-63.773466s42.590726-25.758664 63.032105-11.226692c49.462508 35.082006 107.198786 52.831252 166.379009 52.305273 8.535747-0.065492 16.896501-0.480954 25.169247-1.2689 2.581907-0.305969 5.077853-0.678452 7.615757-1.006933 6.828802-0.831948 13.569596-1.816369 20.223406-3.151783 2.932916-0.568958 5.864808-1.335415 8.710739-1.991354 6.521798-1.487887 13.044619-3.086291 19.435428-5.033643 2.012926-0.656963 3.982871-1.379417 5.995797-2.056845 7.310799-2.407839 14.444559-5.012154 21.492357-7.966439 0.700993-0.305969 1.443944-0.678452 2.144938-0.962931 42.152733-18.361183 79.140627-46.63718 107.986764-81.982176 0.174993-0.218988 0.349985-0.503467 0.524978-0.699941 40.620781-50.051953 65.089034-114.044406 65.089034-183.704952l-66.447017 0c-1.706945 0-3.369885-0.918929-4.244848-2.538823-0.874963-1.619894-0.744997-3.501754 0.218996-4.945639l111.706635-169.567977c0.831982-1.312902 2.320954-2.166339 4.027898-2.166339 1.662941 0 3.150889 0.853437 4.026875 2.166339l111.61965 169.567977c0.962971 1.444908 1.093959 3.326768 0.218996 4.945639-0.874963 1.619894-2.537903 2.538823-4.244848 2.538823L888.990705 300.135076 888.990705 300.130983z"  horiz-adv-x="1024" />

    
    <glyph glyph-name="close" unicode="&#58886;" d="M812.689774 601.785383c-174.598649 174.589443-458.615944 174.589443-633.212547 0-174.589443-174.59558-174.589443-458.615944 0-633.210501 174.59558-174.590466 458.613898-174.590466 633.212547 0C987.277171 143.169439 987.277171 427.189802 812.689774 601.785383L812.689774 601.785383zM748.563437 125.592647c1.824991-1.758498 2.736464-4.102138 2.736464-6.511249 0-2.408088-0.911473-4.688304-2.736464-6.510226L668.561518 32.569255c-1.890462-1.892507-4.164539-2.672016-6.511249-2.800911-2.407065 0.128895-4.686258 0.909427-6.575696 2.800911l-159.357315 159.615105L336.625934 32.762597c-1.822945-1.758498-4.166585-2.672016-6.511249-2.672016-2.408088 0-4.688304 0.914541-6.575696 2.672016l-79.937471 80.070458c-1.88637 1.758498-2.736464 4.166585-2.736464 6.506134 0 2.408088 0.850094 4.688304 2.670993 6.511249l159.55168 159.4279L243.730414 444.702146c-1.821922 1.821922-2.665878 4.101115-2.665878 6.511249 0 2.344663 0.843956 4.688304 2.731349 6.575696l80.007033 79.937471c1.822945 1.821922 4.102138 2.735441 6.575696 2.735441 2.409111 0 4.684212-0.914541 6.441686-2.670993l159.4279-159.55168 7.225287 7.22631 152.2599 152.195453c1.895576 1.823968 4.105207 2.736464 6.513295 2.736464 2.407065 0 4.689327-0.912496 6.511249-2.736464l80.003964-80.070458c1.753383-1.753383 2.66997-4.097023 2.66997-6.570581 0-2.344663-0.844979-4.623856-2.66997-6.512272L589.205099 285.145351 748.563437 125.592647 748.563437 125.592647zM748.563437 125.592647"  horiz-adv-x="1024" />

    
    <glyph glyph-name="cloud" unicode="&#58917;" d="M897.279 287.502c-5.822 63.892-59.532 113.945-124.942 113.945-10.58 0-20.851-1.316-30.665-3.781-25.623 79.206-99.969 136.495-187.707 136.495-73.049 0-136.82-39.709-170.916-98.717-19.123 9.141-40.533 14.264-63.142 14.264-78.589 0-142.728-61.847-146.415-139.523-61.869-9.108-109.36-62.409-109.36-126.808 0-70.796 57.392-128.189 128.189-128.189 33.013 0 63.107 12.482 85.831 32.981 22.601-19.782 52.191-31.775 84.585-31.775 41.061 0 77.623 19.261 101.145 49.239 28.955-37.988 74.674-62.512 126.127-62.512 50.98 0 96.332 24.074 125.325 61.467 23.39-37.622 65.093-62.673 112.653-62.673 73.212 0 132.562 59.35 132.562 132.562-0.001 47.812-25.317 89.706-63.27 113.024z"  horiz-adv-x="1024" />

    
    <glyph glyph-name="yonghu" unicode="&#58888;" d="M746.601644 493.332217c0-140.601248-105.731066-254.571976-236.137115-254.571976-130.406049 0-236.138138 113.970728-236.138138 254.571976 0 140.557246 105.73209 254.549463 236.138138 254.549463C640.869554 747.88168 746.601644 633.889463 746.601644 493.332217zM20.54543-145.968098c0 0 56.673767 221.033116 309.662689 338.207815l367.502002-2.663666c0 0 237.011019-95.870488 302.712393-335.544149L20.54543-145.968098z"  horiz-adv-x="1024" />

    
    <glyph glyph-name="dengpao" unicode="&#58903;" d="M615.122659-48.890109 431.980525-48.890109c-37.056987 0-67.205635 30.148647-67.205635 67.206658l0 142.249795c-37.808094 24.63098-69.614497 57.857732-92.544743 96.821139-26.247804 44.602847-40.121789 95.674013-40.121789 147.69276 0 77.895091 30.333866 151.126976 85.413322 206.206432s128.311341 85.413322 206.206432 85.413322c77.894068 0 151.126976-30.333866 206.206432-85.413322 55.080479-55.079456 85.414345-128.311341 85.414345-206.206432 0-52.096519-13.913894-103.235223-40.234353-147.886165-22.99676-39.009456-54.882981-72.247464-92.784196-96.860025l0-142.016481C682.329317-18.741461 652.18067-48.890109 615.122659-48.890109zM523.728112 645.533664c-64.227814 0-124.611066-25.01165-170.027441-70.427002-45.415352-45.416376-70.427002-105.799628-70.427002-170.027441 0-42.900066 11.429307-84.997859 33.05279-121.741715 21.0095-35.70213 51.0507-65.565275 86.874603-86.36295l12.738116-7.396457 0-171.262572c0-8.845459 7.195889-16.041348 16.040325-16.041348l183.143157 0c8.845459 0 16.041348 7.195889 16.041348 16.041348L631.164007 189.396973l12.771885 7.389294c35.910884 20.775162 66.028832 50.647517 87.09973 86.390579 21.683858 36.784788 33.146934 78.93784 33.146934 121.902374 0 64.227814-25.01165 124.611066-70.427002 170.027441C648.339178 620.522014 587.955926 645.533664 523.728112 645.533664zM612.406804-132.179047 435.048397-132.179047c-14.128789 0-25.582655 11.453866-25.582655 25.582655s11.453866 25.582655 25.582655 25.582655l177.358407 0c14.129812 0 25.582655-11.453866 25.582655-25.582655S626.536616-132.179047 612.406804-132.179047zM652.312676 78.690592 404.01152 78.690592c-14.128789 0-25.582655 11.453866-25.582655 25.582655s11.453866 25.582655 25.582655 25.582655l248.301156 0c14.128789 0 25.582655-11.453866 25.582655-25.582655S666.441465 78.690592 652.312676 78.690592zM843.660702 605.624722M218.350007 621.997622"  horiz-adv-x="1024" />

    
    <glyph glyph-name="bulb" unicode="&#58904;" d="M515.107 680.105c-151.36 0-274.439-123.083-274.439-274.439 0-105.339 59.879-200.703 154.126-246.718l0-118.645c0-33.266 19.964-62.1 48.795-74.849l0-25.504c0-28.832 23.283-52.117 52.115-52.117l39.92 0c28.829 0 52.117 23.284 52.117 52.117l0 25.5c28.828 12.751 48.789 41.584 48.789 74.852l0 118.645c93.695 46.015 154.127 141.378 154.127 246.718-1.108 151.359-124.19 274.443-275.548 274.443l0 0zM535.061-73.361l-39.918 0c-7.203 0-13.308 6.102-13.308 13.307l0 18.299 66.538 0 0-18.299c0-7.204-6.102-13.307-13.312-13.307l0 0zM553.362-2.945l-76.512 0c-23.836 0-43.247 19.403-43.247 43.247l0 46.569 163.561 0 0-46.569c-0.557-23.843-19.964-43.247-43.803-43.247l0 0zM515.107 279.81l-41.584 75.954 82.609 0-41.026-75.954zM608.25 189.44l-11.641-4.99 0-58.772-62.098 0 0 114.211c3.328 2.221 5.548 5.545 7.763 8.869l56.551 104.234c4.989 8.316 4.434 18.849-0.553 27.166-5.542 8.871-15.526 14.419-26.612 14.419l-113.657 0c-11.091 0-21.068-5.541-26.611-14.419-4.991-8.316-5.547-18.294-0.554-27.166l57.108-104.786c2.214-3.322 4.434-6.65 7.759-8.871l0-113.657-62.096 0 0 58.772-11.643 4.99c-86.487 37.141-141.93 122.527-141.93 216.222 0 129.738 105.894 235.63 235.63 235.63 129.733 0 235.632-105.894 235.632-235.63-0.553-93.695-56.551-178.528-143.042-216.222l0 0zM47.12 460.507l102.928 0 0-39.75-102.928 0 0 39.75zM254.01 649.982l-72.78 72.78 28.112 28.105 72.78-72.78-28.112-28.105zM742.348 678.086l72.78 72.78 28.106-28.105-72.779-72.78-28.107 28.105zM873.369 460.507l102.927 0 0-39.75-102.927 0 0 39.75zM491.831 856.237l39.75 0 0-102.927-39.75 0 0 102.927zM491.831 856.237z"  horiz-adv-x="1024" />

    
    <glyph glyph-name="youduiqi" unicode="&#58919;" d="M81.049616 608.230124l865.727751 0 0-61.042626-865.727751 0 0 61.042626ZM81.049616 235.692021l865.727751 0 0-61.042626-865.727751 0 0 61.042626ZM345.275088 421.961073l602.569093 0 0-61.042626-602.569093 0 0 61.042626ZM349.869724 55.067486l599.021514 0 0-61.042626-599.021514 0 0 61.042626Z"  horiz-adv-x="1024" />

    
    <glyph glyph-name="zuoduiqi" unicode="&#58931;" d="M76.200976 608.230124l865.727751 0 0-61.042626-865.727751 0 0 61.042626ZM76.200976 235.692021l865.727751 0 0-61.042626-865.727751 0 0 61.042626ZM78.297914 421.961073l602.569093 0 0-61.042626-602.569093 0 0 61.042626ZM76.200976 55.067486l599.021514 0 0-61.042626-599.021514 0 0 61.042626Z"  horiz-adv-x="1024" />

    
    <glyph glyph-name="aizhuangxiu" unicode="&#58896;" d="M847.51652 474.392866 292.808836 474.392866c-67.965951 0-123.043361 69.194942-123.241882 137.15987l-4.341888 0c-32.853245 0-59.479673-26.606984-59.479673-59.479673l0-99.132788c0-32.832779 26.626427-59.479673 59.479673-59.479673l376.704594 0c32.832779 0 59.479673-26.606984 59.479673-59.479673l0.198521-103.931071c35.886325-12.70844 59.777455-46.968731 59.777455-87.196944l0-246.563582c0-51.033303-40.148395-92.431156-91.222631-92.431156-51.05377 0-87.494727 41.397852-87.494727 92.431156L482.667951 142.852914c0 40.228213 22.641673 74.507948 58.527998 87.196944l0 51.64831c-3.588735 29.423123-28.372188 52.28276-58.745962 52.28276L105.745393 333.980929c-32.853245 0-59.479673 26.646893-59.479673 59.479673L46.26572 611.552735c0 32.872688 26.626427 59.479673 59.479673 59.479673l0.297782 0 0 0.039909 63.504336 0c0 68.084655 55.17667 118.919437 123.262348 118.919437l554.707684 0c68.084655 0 129.467677-55.17667 129.467677-123.262348l0-61.640895C977.00364 537.024322 915.600151 474.392866 847.51652 474.392866zM888.893906 710.685523l-634.449843 0c-16.416901 0-29.739325-13.323447-29.739325-29.739325s13.323447-29.739325 29.739325-29.739325l634.449843 0c16.416901 0 29.739325 13.323447 29.739325 29.739325S905.33025 710.685523 888.893906 710.685523z"  horiz-adv-x="1024" />

    
    <glyph glyph-name="link" unicode="&#58902;" d="M829.567729 618.420143M567.011918 97.301462c-24.186865 0-47.865147 3.299139-70.530356 9.664104l-71.863724-71.863724c-23.863501-23.863501-55.592133-37.005822-89.340771-37.005822s-65.47727 13.142322-89.341794 37.005822c-49.262984 49.262984-49.262984 129.419582 0 178.681542l120.530121 120.530121c23.863501 23.863501 55.592133 37.006845 89.340771 37.006845s65.47727-13.142322 89.340771-37.006845c14.827707-14.827707 25.512047-32.692586 31.479969-52.189639 16.437367 2.086521 31.639604 9.486048 43.545772 21.392216l26.018583 26.018583c-10.254551 23.064298-24.774243 44.281529-43.157939 62.665225-39.326681 39.326681-91.611487 60.983933-147.228179 60.983933-55.615669 0-107.901499-21.658276-147.228179-60.983933L188.048887 271.669768c-81.181951-81.181951-81.181951-213.273385 0-294.455335 39.325657-39.326681 91.612511-60.983933 147.228179-60.983933 55.615669 0 107.901499 21.657252 147.228179 60.983933l120.530121 120.530121c0.775666 0.775666 1.531889 1.564635 2.294252 2.350534C592.752162 98.24495 579.954695 97.301462 567.011918 97.301462zM834.770218 624.43616c-39.326681 39.326681-91.612511 60.983933-147.227156 60.983933-55.615669 0-107.901499-21.658276-147.228179-60.983933L419.783739 503.90604c-0.775666-0.775666-1.531889-1.564635-2.294252-2.350534 12.57541 1.851161 25.3739 2.793626 38.316677 2.793626 24.186865 0 47.865147-3.299139 70.530356-9.664104l71.863724 71.863724c23.863501 23.863501 55.592133 37.006845 89.341794 37.006845 33.747615 0 65.476247-13.142322 89.340771-37.006845 49.262984-49.262984 49.262984-129.419582 0-178.682565L656.352689 267.337089c-23.863501-23.863501-55.592133-37.005822-89.341794-37.005822-33.747615 0-65.476247 13.142322-89.340771 37.005822-14.827707 14.827707-25.512047 32.692586-31.480992 52.190663-16.437367-2.086521-31.638581-9.486048-43.544749-21.393239l-26.019607-26.019607c10.254551-23.064298 24.774243-44.280506 43.157939-62.664202 39.326681-39.326681 91.612511-60.983933 147.228179-60.983933s107.901499 21.657252 147.228179 60.983933l120.530121 120.530121C915.952168 411.161752 915.952168 543.25421 834.770218 624.43616z"  horiz-adv-x="1024" />

    
    <glyph glyph-name="list" unicode="&#59063;" d="M736.110197-66.728382M921.426857 363.120596M165.788907 609.433468m-57.296961 0a55.992 55.992 0 1 0 114.593921 0 55.992 55.992 0 1 0-114.593921 0ZM880.730992 578.734282l-548.492122 0c-16.954137 0-30.699186 13.745049-30.699186 30.699186s13.745049 30.699186 30.699186 30.699186l548.492122 0c16.954137 0 30.699186-13.745049 30.699186-30.699186S897.685129 578.734282 880.730992 578.734282zM165.788907 348.266283m-57.296961 0a55.992 55.992 0 1 0 114.593921 0 55.992 55.992 0 1 0-114.593921 0ZM880.730992 317.567098l-548.492122 0c-16.954137 0-30.699186 13.745049-30.699186 30.699186s13.745049 30.699186 30.699186 30.699186l548.492122 0c16.954137 0 30.699186-13.745049 30.699186-30.699186S897.685129 317.567098 880.730992 317.567098zM159.316495 90.230416m-57.296961 0a55.992 55.992 0 1 0 114.593921 0 55.992 55.992 0 1 0-114.593921 0ZM874.258581 59.53123l-548.492122 0c-16.954137 0-30.699186 13.745049-30.699186 30.699186s13.745049 30.699186 30.699186 30.699186l548.492122 0c16.954137 0 30.699186-13.745049 30.699186-30.699186S891.212718 59.53123 874.258581 59.53123z"  horiz-adv-x="1024" />

    
    <glyph glyph-name="subscript" unicode="&#59595;" d="M512.576 29.728l0-95.424-141.728 0-90.848 144-13.728 24q-4.576 5.152-6.272 12l-1.728 0-5.152-12q-5.728-11.424-14.272-25.152l-88.576-142.848-147.424 0 0 95.424 73.152 0 112.576 166.272-105.728 155.424-78.272 0 0 96 157.728 0 79.424-130.272q1.152-2.272 13.152-24 4.576-5.152 6.272-12l1.728 0q1.728 5.152 6.272 12l14.272 24 80 130.272 146.848 0 0-96-71.424 0-105.152-152.576 116.576-169.152 62.272 0zM877.728-94.272l0-117.728-293.728 0-2.272 15.424q-1.728 25.728-1.728 26.272 0 36.576 14.848 66.848t37.152 49.44 48 37.152 48 31.136 37.152 30.848 14.848 36.576q0 21.728-16.864 35.712t-40.288 14.016q-29.152 0-55.424-22.272-8-6.272-20.576-21.728l-60 52.576q14.848 21.152 36 37.728 45.728 37.152 107.424 37.152 62.848 0 101.728-34.016t38.848-90.56q0-37.728-19.712-67.712t-48-49.152-56.864-35.712-49.728-36-23.424-41.728l132.576 0 0 45.728 72 0z"  horiz-adv-x="1024" />

    
    <glyph glyph-name="wand" unicode="&#58880;" d="M255.998 620.0015l-127.999 127.999-63.9995 0 0-63.9995 127.999-127.999zM319.9975 812l63.9995 0 0-127.999-63.9995 0zM575.9955 492.0025l127.999 0 0-63.9995-127.999 0zM639.995 684.001l0 63.9995-63.9995 0-127.999-127.999 63.9995-63.9995zM0 492.0025l127.999 0 0-63.9995-127.999 0zM319.9975 236.0045l63.9995 0 0-127.999-63.9995 0zM63.9995 236.0045l0-63.9995 63.9995 0 127.999 127.999-63.9995 63.9995zM1010.008109-70.009109l-636.12303 636.12303c-18.655854 18.655854-49.215616 18.655854-67.87147 0l-60.12753-60.12753c-18.655854-18.655854-18.655854-49.215616 0-67.87147l636.12303-636.12303c18.655854-18.655854 49.215616-18.655854 67.87147 0l60.12753 60.12753c18.655854 18.655854 18.655854 49.215616 0 67.87147zM479.99625 268.00425l-191.9985 191.9985 63.9995 63.9995 191.9985-191.9985-63.9995-63.9995z"  horiz-adv-x="1024" />

    
    <glyph glyph-name="shujuzhiliang" unicode="&#58915;" d="M331.528976 387.970564l364.31091 1.63422L520.642687-50.823134 331.528976 387.970564zM373.282603 547.606331l277.529965-2.459005 49.12071-107.243513-360.217517 2.459005L373.282603 547.606331zM293.867718 443.635351 74.46495 535.326657l117.888681 87.591941 140.814749-72.858378L293.867718 443.635351zM74.46495 482.114734l207.943316-92.50995 223.502301-437.154361L74.46495 482.114734zM748.234287 390.423429l194.84753 100.691283L532.922864-45.095689 748.234287 390.423429zM744.140894 444.456043l-54.849413 112.969934 125.255764 69.584821 108.067609-90.870614L744.140894 444.456043zM369.18921 601.632805l-47.481306 12.279674-89.24005 49.938366 104.793918 37.658691L679.465293 701.509537l103.974216-43.385113-99.880824-48.304146-33.566842-8.18645L369.18921 601.633828 369.18921 601.632805z"  horiz-adv-x="1024" />

    
    <glyph glyph-name="wenhao" unicode="&#60368;" d="M189.339276 562.7134c0.161682-0.375553 0.261966-0.588401 0.282433-0.633427-0.054235 0.118704-0.107447 0.23843-0.160659 0.358157C189.420117 562.529205 189.380208 562.621303 189.339276 562.7134zM826.847781 556.871345c-0.042979-0.099261-0.086981-0.199545-0.130983-0.297782-0.00307-0.00614-0.004093-0.00921-0.004093-0.00921S826.76387 556.67487 826.847781 556.871345zM509.815241 397.41875M511.573281 746.332395c-246.972904 0-447.184809-200.211904-447.184809-447.184809s200.211904-447.184809 447.184809-447.184809 447.184809 200.211904 447.184809 447.184809S758.546186 746.332395 511.573281 746.332395zM538.435069-27.031265l-84.422761 0 0 92.097558 84.422761 0L538.435069-27.031265zM661.231813 379.732949c-15.349593-28.180829-35.855626-52.464909-61.398372-72.910567-25.603121-20.506033-43.530422-40.952714-53.723575-61.398372-10.253528-20.506033-15.349593-34.536584-15.349593-42.211381l0-26.861788-69.073168 0 0 38.373982c0 23.024389 5.756097 45.388746 17.268292 67.154469 11.512195 21.705348 31.298843 45.388746 59.479673 70.991868 20.445658 17.86795 34.536584 36.455283 42.211381 55.642275s11.512195 37.71395 11.512195 55.642275c0 33.217543-7.674796 58.160631-23.024389 74.829266-15.349593 16.60826-37.115316 24.943089-65.23577 24.943089-28.180829 0-51.804876-10.912537-70.991868-32.617885-19.186991-21.765723-28.780487-56.961316-28.780487-105.528452l-88.26016 0c2.518357 71.591525 21.705348 124.715443 57.560974 159.252027 35.795251 34.536584 79.266321 51.804876 130.47154 51.804876 56.241932 0 100.372012-15.349593 132.390239-46.048779 31.957853-30.699186 47.967478-70.39221 47.967478-118.959346C684.256202 438.552589 676.581406 407.853403 661.231813 379.732949z"  horiz-adv-x="1024" />

    
    <glyph glyph-name="beijing" unicode="&#58895;" d="M889.123127 770.801692 141.232628 770.801692c-74.479295 0-134.855384-65.067948-134.855384-145.33404l0-646.102231c0-80.265068 60.376089-145.33404 134.855384-145.33404l747.890498 0c74.479295 0 134.855384 65.068971 134.855384 145.33404L1023.978511 625.467653C1023.978511 705.733745 963.602422 770.801692 889.123127 770.801692zM937.670819 390.772376c-208.905914-10.82044-226.616274-195.523115-350.554004-201.166649-127.748523-5.817496-166.991292 138.420583-253.095345 140.243091-85.661985 5.083785-156.63441-81.129762-241.335511-113.224738L92.685959 625.467653c0 28.849048 21.778003 52.320623 48.547693 52.320623L889.12415 677.788276c26.76969 0 48.547693-23.471574 48.547693-52.320623l0-234.695277L937.670819 390.772376zM207.546963 549.838162c0 54.514591 41.005926 98.707093 91.589998 98.707093s91.589998-44.192501 91.589998-98.707093-41.005926-98.707093-91.589998-98.707093S207.546963 495.323571 207.546963 549.838162L207.546963 549.838162 207.546963 549.838162z"  horiz-adv-x="1024" />

    
    <glyph glyph-name="shangxiajian01" unicode="&#58918;" d="M263.571954 381.580017 512 811.87004 760.428046 381.580017ZM263.571954 218.874331 512-211.416715 760.428046 218.874331Z"  horiz-adv-x="1024" />

    
    <glyph glyph-name="xiazai" unicode="&#58885;" d="M258.402 378.479l202.221-202.256c13.723-13.675 31.975-21.201 51.369-21.201 19.439 0 37.688 7.544 51.394 21.25l202.216 202.202c15.794 15.799 15.794 41.489 0 57.283-7.649 7.651-17.821 11.861-28.639 11.861s-20.989-4.211-28.639-11.861L552.503 279.954 552.503 717.789c0 22.341-18.168 40.505-40.505 40.505-22.337 0-40.5-18.171-40.5-40.505L471.498 279.92 315.68 435.757c-7.649 7.651-17.822 11.861-28.639 11.861-10.818 0-20.988-4.212-28.639-11.861-7.651-7.649-11.863-17.822-11.863-28.639S250.753 386.128 258.402 378.479zM811.947 651.164c-22.337 0-40.5-18.163-40.5-40.5s18.169-40.5 40.5-40.5c48.551 0 88.051-39.501 88.051-88.052l0-471.348c0-48.552-39.501-88.052-88.051-88.052L212.053-77.288c-48.552 0-88.051 39.501-88.051 88.052L124.002 482.112c0 48.552 39.496 88.052 88.051 88.052 22.337 0 40.5 18.163 40.5 40.5s-18.169 40.5-40.5 40.5C118.836 651.164 43 575.33 43 482.109l0-471.348c0-93.218 75.833-169.055 169.053-169.055l0 0 599.894 0c93.217 0 169.053 75.834 169.053 169.055L981 482.109C981 575.328 905.167 651.164 811.947 651.164z"  horiz-adv-x="1024" />

    
    <glyph glyph-name="textaligncenter" unicode="&#59027;" d="M896 556l-768 0c-14.1312 0-25.6 11.4688-25.6 25.6s11.4688 25.6 25.6 25.6l768 0c14.1312 0 25.6-11.4688 25.6-25.6s-11.4688-25.6-25.6-25.6zM793.6 402.4l-563.2 0c-14.1312 0-25.6 11.4688-25.6 25.6s11.4688 25.6 25.6 25.6l563.2 0c14.1312 0 25.6-11.4688 25.6-25.6s-11.4688-25.6-25.6-25.6zM896 248.8l-768 0c-14.1312 0-25.6 11.4688-25.6 25.6s11.4688 25.6 25.6 25.6l768 0c14.1312 0 25.6-11.4688 25.6-25.6s-11.4688-25.6-25.6-25.6zM793.6 95.2l-563.2 0c-14.1312 0-25.6 11.4688-25.6 25.6s11.4688 25.6 25.6 25.6l563.2 0c14.1312 0 25.6-11.4688 25.6-25.6s-11.4688-25.6-25.6-25.6zM896-58.4l-768 0c-14.1312 0-25.6 11.4688-25.6 25.6s11.4688 25.6 25.6 25.6l768 0c14.1312 0 25.6-11.4688 25.6-25.6s-11.4688-25.6-25.6-25.6z"  horiz-adv-x="1024" />

    
    <glyph glyph-name="textalignjustify" unicode="&#59028;" d="M896 556l-768 0c-14.1312 0-25.6 11.4688-25.6 25.6s11.4688 25.6 25.6 25.6l768 0c14.1312 0 25.6-11.4688 25.6-25.6s-11.4688-25.6-25.6-25.6zM896 402.4l-768 0c-14.1312 0-25.6 11.4688-25.6 25.6s11.4688 25.6 25.6 25.6l768 0c14.1312 0 25.6-11.4688 25.6-25.6s-11.4688-25.6-25.6-25.6zM896 248.8l-768 0c-14.1312 0-25.6 11.4688-25.6 25.6s11.4688 25.6 25.6 25.6l768 0c14.1312 0 25.6-11.4688 25.6-25.6s-11.4688-25.6-25.6-25.6zM896 95.2l-768 0c-14.1312 0-25.6 11.4688-25.6 25.6s11.4688 25.6 25.6 25.6l768 0c14.1312 0 25.6-11.4688 25.6-25.6s-11.4688-25.6-25.6-25.6zM896-58.4l-768 0c-14.1312 0-25.6 11.4688-25.6 25.6s11.4688 25.6 25.6 25.6l768 0c14.1312 0 25.6-11.4688 25.6-25.6s-11.4688-25.6-25.6-25.6z"  horiz-adv-x="1024" />

    
    <glyph glyph-name="2" unicode="&#58894;" d="M631.466667-58.4c0-12.561067-10.194489-22.755556-22.755556-22.755556l-182.044444 0c-12.561067 0-22.755556 10.194489-22.755556 22.755556s10.194489 22.755556 22.755556 22.755556l182.044444 0C621.272178-35.644444 631.466667-45.838933 631.466667-58.4zM608.711111-92.533333l-182.044444 0c-14.973156 0-26.567111-14.461156-21.583644-30.173867 3.003733-9.477689 12.5952-15.337244 22.539378-15.337244l0.341333 0c13.141333 0 25.156267-7.429689 31.038578-19.182933l0.238933-0.477867C467.171556-173.543111 483.362133-183.555556 501.077333-183.555556l33.223111 0c17.7152 0 33.905778 10.012444 41.824711 25.850311l0.238933 0.477867c5.882311 11.753244 17.897244 19.182933 31.038578 19.182933l0.341333 0c9.944178 0 19.535644 5.859556 22.539378 15.337244C635.278222-106.994489 623.684267-92.533333 608.711111-92.533333zM517.688889 635.644444c12.561067 0 22.755556 10.194489 22.755556 22.755556l0 91.022222c0 12.561067-10.194489 22.755556-22.755556 22.755556s-22.755556-10.194489-22.755556-22.755556l0-91.022222C494.933333 645.838933 505.127822 635.644444 517.688889 635.644444zM276.332089 549.002667c4.437333-4.448711 10.262756-6.667378 16.088178-6.667378s11.650844 2.218667 16.088178 6.667378c8.886044 8.886044 8.886044 23.290311 0 32.176356l-64.364089 64.364089c-8.874667 8.886044-23.301689 8.886044-32.176356 0-8.886044-8.886044-8.886044-23.290311 0-32.176356L276.332089 549.002667zM221.866667 339.822222c0 12.561067-10.194489 22.755556-22.755556 22.755556l-91.022222 0c-12.561067 0-22.755556-10.194489-22.755556-22.755556s10.194489-22.755556 22.755556-22.755556l91.022222 0C211.672178 317.066667 221.866667 327.261156 221.866667 339.822222zM276.332089 130.641778l-64.364089-64.364089c-8.886044-8.886044-8.886044-23.290311 0-32.176356 4.437333-4.448711 10.262756-6.667378 16.088178-6.667378s11.650844 2.218667 16.088178 6.667378l64.364089 64.364089c8.886044 8.886044 8.886044 23.290311 0 32.176356C299.633778 139.527822 285.206756 139.527822 276.332089 130.641778zM759.045689 130.641778c-8.886044 8.886044-23.290311 8.886044-32.176356 0s-8.886044-23.290311 0-32.176356l64.364089-64.364089c4.448711-4.448711 10.262756-6.667378 16.088178-6.667378s11.639467 2.218667 16.088178 6.667378c8.886044 8.886044 8.886044 23.290311 0 32.176356L759.045689 130.641778zM927.288889 362.577778l-91.022222 0c-12.561067 0-22.755556-10.194489-22.755556-22.755556s10.194489-22.755556 22.755556-22.755556l91.022222 0c12.561067 0 22.755556 10.194489 22.755556 22.755556S939.849956 362.577778 927.288889 362.577778zM742.957511 542.335289c5.825422 0 11.639467 2.218667 16.088178 6.667378l64.364089 64.364089c8.886044 8.886044 8.886044 23.290311 0 32.176356s-23.290311 8.886044-32.176356 0l-64.364089-64.364089c-8.886044-8.886044-8.886044-23.290311 0-32.176356C731.306667 544.553956 737.132089 542.335289 742.957511 542.335289zM631.466667-1.511111c0-12.561067-10.194489-22.755556-22.755556-22.755556l-182.044444 0c-12.561067 0-22.755556 10.194489-22.755556 22.755556 0 12.117333 9.500444 21.936356 21.447111 22.619022C411.192889 149.153422 278.755556 177.677511 278.755556 328.444444c0 131.959467 106.973867 238.933333 238.933333 238.933333s238.933333-106.973867 238.933333-238.933333c0-150.766933-132.437333-179.291022-146.602667-307.336533C621.966222 20.425244 631.466667 10.606222 631.466667-1.511111zM465.248711 503.548444c-3.538489 8.726756-13.471289 12.925156-22.232178 9.409422-58.151822-23.563378-102.240711-73.9328-117.930667-134.735644-2.3552-9.136356 3.140267-18.432 12.265244-20.7872C338.773333 357.059556 340.206933 356.888889 341.617778 356.888889c7.600356 0 14.529422 5.108622 16.520533 12.8 12.993422 50.3808 49.516089 92.114489 97.6896 111.627378C464.566044 484.854756 468.775822 494.798933 465.248711 503.548444z"  horiz-adv-x="1024" />

    
    <glyph glyph-name="suoxiao" unicode="&#58891;" d="M511.999488 747.687252c-247.236917 0-447.696462-200.423729-447.696462-447.687252 0-247.254314 200.459544-447.686229 447.696462-447.686229s447.696462 200.431915 447.696462 447.686229C959.69595 547.263523 759.236406 747.687252 511.999488 747.687252zM765.692445 253.535759 258.306532 253.535759 258.306532 346.464241 765.692445 346.464241 765.692445 253.535759z"  horiz-adv-x="1024" />

    
    <glyph glyph-name="fangda" unicode="&#58892;" d="M511.999488 747.687252c-247.236917 0-447.696462-200.423729-447.696462-447.687252 0-247.254314 200.459544-447.686229 447.696462-447.686229s447.696462 200.431915 447.696462 447.686229C959.69595 547.263523 759.236406 747.687252 511.999488 747.687252zM765.692445 253.535759 558.44531 253.535759 558.44531 46.297834l-92.89062 0L465.55469 253.535759 258.306532 253.535759 258.306532 346.464241l207.247134 0L465.553667 553.703189l92.89062 0L558.444287 346.464241 765.692445 346.464241 765.692445 253.535759z"  horiz-adv-x="1024" />

    
    <glyph glyph-name="del" unicode="&#58882;" d="M845.328 668l-240 0L605.328 716c0 26.512-21.488 48-48 48l-96 0c-26.512 0-48-21.488-48-48l0-48-240 0c-26.512 0-48-21.504-48-48l0-48 768 0 0 48C893.328 646.496 871.84 668 845.328 668zM173.328-116c0-26.512 21.488-48 48-48l576 0c26.512 0 48 21.488 48 48L845.328 524l-672 0L173.328-116zM653.328 380c0 26.496 21.488 48 48 48s48-21.504 48-48l0-400c0-26.512-21.488-48-48-48s-48 21.488-48 48L653.328 380zM461.328 380c0 26.496 21.504 48 48 48 26.512 0 48-21.504 48-48l0-400c0-26.512-21.488-48-48-48-26.496 0-48 21.488-48 48L461.328 380zM269.328 380c0 26.496 21.488 48 48 48s48-21.504 48-48l0-400c0-26.512-21.488-48-48-48s-48 21.488-48 48L269.328 380z"  horiz-adv-x="1024" />

    
    <glyph glyph-name="htmal5icon44" unicode="&#58898;" d="M516.085038 646.668375 436.016445 726.736968 92.865038 383.586584 436.016445 40.435177 516.085038 120.50377 253.002224 383.586584ZM880.69927 646.668375 800.630676 726.736968 457.480292 383.586584 800.630676 40.435177 880.69927 120.50377 617.616456 383.586584Z"  horiz-adv-x="1024" />

    
    <glyph glyph-name="htmal5icon45" unicode="&#58899;" d="M482.697627 646.668375 562.766221 726.736968 905.917628 383.586584 562.766221 40.435177 482.697627 120.50377 745.780441 383.586584ZM118.083395 646.668375 198.151989 726.736968 541.302373 383.586584 198.151989 40.435177 118.083395 120.50377 381.166209 383.586584Z"  horiz-adv-x="1024" />

    
    <glyph glyph-name="mima" unicode="&#58890;" d="M794.555819-126.209214 229.439064-126.209214c-69.305459 0-125.607766 59.490929-125.607766 132.73407L103.831298 404.428262c0 73.144904 56.30333 132.63481 125.607766 132.63481l32.587186 0c-3.338025 16.541745-5.132904 33.580816-5.132904 51.021024l0 51.021024c0 140.90517 114.199948 255.104095 255.107165 255.104095 140.854005 0 255.104095-114.198925 255.104095-255.104095l0-51.021024c0-17.439184-1.795902-34.479279-5.132904-51.021024l32.584116 0c69.258387 0 125.611859-59.489906 125.611859-132.63481l0-397.903405C920.167678-66.718285 863.814206-126.209214 794.555819-126.209214zM460.977441 193.867662l0-115.993804c0-28.099988 22.870894-51.02 51.02307-51.02 28.149107 0 51.02 22.920012 51.02 51.02L563.020512 193.867662c30.93864 17.538445 52.014654 50.223868 52.014654 88.090291 0 56.402591-46.137807 102.042047-103.034655 102.042047-56.952106 0-103.089913-45.639456-103.089913-102.042047C408.910599 244.09153 430.036755 211.406107 460.977441 193.867662zM665.06256 639.105119c0 84.552721-68.509327 153.063071-153.062048 153.063071-84.554768 0-153.065118-68.509327-153.065118-153.063071l0-102.042047 306.127166 0L665.06256 639.105119z"  horiz-adv-x="1024" />

    
    <glyph glyph-name="baocun1" unicode="&#58949;" d="M816.739994-18.004138 207.258755-18.004138C159.330024-18.004138 120.339961 21.015116 120.339961 68.975472L120.339961 698.466241c0 47.965221 38.990063 86.983259 86.918795 86.983259l609.482455 0c47.928732 0 86.918795-39.018038 86.918795-86.983259l0-629.487121C903.658789 21.015116 864.669942-18.004138 816.739994-18.004138L816.739994-18.004138zM197.79464 737.871066c-16.472499 0-29.876245-13.40253-29.876245-29.875029l0-648.545496c0-16.472499 13.403746-29.876245 29.876245-29.876245l628.409469 0c16.472499 0 29.876245 13.403746 29.876245 29.876245L856.080355 707.996037c0 16.472499-13.403746 29.875029-29.876245 29.875029L197.79464 737.871066 197.79464 737.871066zM197.79464 737.871066M757.059266 432.843398 266.938267 432.843398 266.938267 746.499576l29.87138 0 0-283.784798 430.379456 0L727.189103 746.499576l29.870164 0L757.059266 432.843398zM757.059266 432.843398M670.763223 507.522455l-87.402886 0L583.360336 656.881787l87.402886 0L670.763223 507.522455 670.763223 507.522455zM613.2305 537.393835l27.662559 0 0 89.617789-27.662559 0L613.2305 537.393835 613.2305 537.393835zM613.2305 537.393835"  horiz-adv-x="1024" />

    
    <glyph glyph-name="tupian-copy" unicode="&#58953;" d="M862.815 861.533h-700.935c-17.609 0-127.441 0-127.441-127.441v-700.898c0-127.467 127.441-127.467 127.441-127.467h700.937c127.441 0 127.441 127.467 127.441 127.467v700.898c-0.001 127.441-109.821 127.441-127.442 127.441M926.535 33.194c0 0 0-63.719-63.721-63.719l-240.331 250.32-131.043-113.81-196.641 182.066-196.629-182.066v628.108c0 63.721 46.099 63.721 63.708 63.721h700.937c17.621 0 63.721 0 63.721-63.721v-700.899zM671.653 607.143c-70.496 0-127.635-57.242-127.635-127.855 0-70.561 57.14-127.829 127.635-127.829 70.459 0 127.635 57.268 127.635 127.829 0 70.613-57.177 127.855-127.635 127.855z"  horiz-adv-x="1024" />

    
    <glyph glyph-name="zhaomingshoudiantong" unicode="&#58905;" d="M231.039515-11.944797 231.039515-11.944797c-23.64349 0.013303-45.710065 9.052167-62.130036 25.484418l-91.473341 91.474364c-16.261359 16.261359-26.307156 39.426965-27.565822 63.560618-1.338485 25.605168 7.421017 49.806359 24.040533 66.411549l382.165979 355.302145c8.985652 25.65838 45.141106 144.246265 67.418482 218.251769 15.09479 43.165102 39.255049 51.992141 56.93471 51.992141 25.830295 0 45.379537-19.826558 52.748365-27.288506l288.295032-288.308335c6.175653-6.175653 24.981974-24.981974 21.177322-50.2955-3.63069-24.240077-25.207102-38.751582-47.975664-50.812269-1.390673-0.74292-2.849908-1.36509-4.347005-1.841951-91.128487-29.5275-193.95848-63.906495-213.254965-72.163553L293.899168 13.568273C277.955034-2.389164 254.788405-11.944797 231.039515-11.944797zM581.849346 805.572478c-1.458211-1.855254-3.963265-5.871731-6.745634-13.82282-68.62496-228.112348-70.718645-230.206032-76.921927-236.408291L111.57568 195.903018c-5.03569-5.062296-8.03193-14.247492-7.501858-24.492834 0.569982-10.761088 4.956895-21.230534 11.742439-28.0171l91.473341-91.472318c6.175653-6.175653 14.604626-9.581216 23.74889-9.581216l0 0c9.462512 0 18.646686 3.76372 25.193799 10.30981l386.592802 359.437325c4.810562 4.823865 9.980305 9.992585 228.457202 80.791048 8.204869 4.439102 12.854772 7.593955 15.479553 9.661034-0.887206 1.086751-2.080382 2.425236-3.670599 4.015454L595.525833 794.121681c-0.053212 0.039909-0.953721 0.954745-0.99363 1.006933C587.98509 801.755546 584.049454 804.472424 581.849346 805.572478zM578.534857 602.09725c-3.498684 0-6.984065 1.338485-9.635451 4.015454-4.095271 4.121877-4.995781 10.205433-2.715855 15.187911 1.948375 6.387477 10.364045 43.788296 17.61417 77.397764 0.11768 0.556679 0.264013 1.100054 0.449231 1.630127 5.288446 15.055904 13.227256 23.895223 23.603581 26.267247 6.242168 1.404999 15.851013 0.967024 26.161846-9.342786l22.635533-22.636556c5.301749-5.300726 5.301749-13.889335 0-19.190061-5.301749-5.300726-13.889335-5.300726-19.190061 0l-22.636556 22.636556c-0.463558 0.463558-0.861624 0.821715-1.206478 1.100054-0.901533-1.258667-2.173502-3.498684-3.485381-7.063883-17.627473-81.69258-18.47477-82.540901-22.039969-86.065168C585.440128 603.409129 581.981353 602.09725 578.534857 602.09725zM685.434539 633.069659c-3.472078 0-6.944156 1.325182-9.595542 3.975545l-9.595542 9.595542c-5.300726 5.301749-5.300726 13.889335 0 19.190061 5.302773 5.301749 13.890358 5.301749 19.191084 0l9.595542-9.595542c5.301749-5.300726 5.301749-13.889335 0-19.190061C692.379719 634.395864 688.907641 633.069659 685.434539 633.069659zM656.648936 393.162684c-3.473101 0-6.944156 1.325182-9.595542 3.975545L483.90871 560.270633c-5.301749 5.301749-5.301749 13.889335 0 19.190061s13.889335 5.301749 19.190061 0l163.145707-163.132404c5.302773-5.301749 5.302773-13.889335 0-19.190061C663.593092 394.487865 660.122037 393.162684 656.648936 393.162684zM810.185798 705.856405c-6.944156 0-13.902638 2.650363-19.191084 7.952112-10.601452 10.602476-10.601452 27.77867 0 38.381146l19.191084 19.190061c10.589173 10.602476 27.791973 10.602476 38.381146 0 10.602476-10.602476 10.602476-27.77867 0-38.381146l-19.190061-19.190061C824.076156 708.506768 817.130977 705.856405 810.185798 705.856405zM733.411227 782.617673c-6.944156 0-13.889335 2.650363-19.190061 7.938809-10.602476 10.602476-10.602476 27.791973-0.014326 38.394449l19.191084 19.204387C744.001423 858.744491 761.189897 858.756771 771.778046 848.167598c10.602476-10.602476 10.616802-27.791973 0.014326-38.394449l-19.191084-19.204387C747.300562 785.26906 740.355383 782.617673 733.411227 782.617673zM886.962415 629.094114c-6.945179 0-13.902638 2.650363-19.191084 7.952112-10.602476 10.602476-10.602476 27.77867 0 38.381146l19.191084 19.190061c10.589173 10.602476 27.79095 10.602476 38.380122 0 10.602476-10.602476 10.602476-27.77867 0-38.381146l-19.190061-19.190061C900.850727 631.744477 893.906571 629.094114 886.962415 629.094114zM489.090732 378.279718c-7.196912 0-14.114462 2.849908-19.283182 7.872295-5.010107 5.02341-7.858992 12.087293-7.858992 19.270902 0 7.063883 2.849908 14.114462 7.858992 19.136849 10.178827 10.045797 28.228925 10.178827 38.407752 0 5.022387-5.022387 8.017604-12.072967 8.017604-19.136849 0-7.18361-2.995217-14.114462-8.017604-19.270902C503.191892 381.128603 496.141312 378.279718 489.090732 378.279718z"  horiz-adv-x="1024" />

    
    <glyph glyph-name="upload" unicode="&#58883;" d="M905.369647-3.997801 108.767727-3.997801c-28.690436 0-51.939953 22.095227-51.939953 49.246611L56.827775 291.509493c0 27.205619 23.249517 49.246611 51.939953 49.246611s51.967582-22.040992 51.967582-49.246611l0-197.014072L853.430718 94.49542 853.430718 291.509493c0 27.205619 23.248494 49.246611 51.938929 49.246611s51.967582-22.040992 51.967582-49.246611l0-246.260683C957.337229 18.097426 934.060083-3.997801 905.369647-3.997801zM662.929989 521.335878c-15.335267 0-29.102828 6.293333-38.611389 16.296151l0 0-65.296145 68.75799 0-298.448276c0-0.026606 0-0.026606 0-0.026606 0-27.179013-23.249517-49.246611-51.939953-49.246611s-51.967582 22.067598-51.967582 49.246611l0 0L455.11492 606.391043l-65.268516-68.75799 0 0c-9.53619-10.002818-23.303752-16.296151-38.639019-16.296151-28.690436 0-51.939953 22.039969-51.939953 49.246611 0 12.668531 5.056156 24.211425 13.356193 32.92283l-0.027629 0.027629 155.874093 164.146501 0-0.027629c9.508561 10.030447 23.277146 16.32378 38.611389 16.32378s29.102828-6.293333 38.610366-16.32378l0 0.027629 155.847487-164.146501 0-0.027629c8.299013-8.711406 13.356193-20.253276 13.356193-32.92283C714.896548 543.375847 691.620425 521.335878 662.929989 521.335878z"  horiz-adv-x="1024" />

    
    <glyph glyph-name="iconfontcaijian" unicode="&#58916;" d="M1025.024 256l0-128-128 0 0-192.512-128 0 0 192.512-513.024 0q-26.624 0-45.056 18.432t-18.432 45.056l0 448.512-192.512 0 0 128 192.512 0 0 128 128 0 0-128 512 0q26.624 0 45.568-18.432t18.944-45.056l0-448.512 128 0zM769.024 640l-448.512 0 0-384 448.512 0 0 384zM704.512 319.488l-319.488 0 0 257.024 319.488 0 0-257.024z"  horiz-adv-x="1026" />

    
    <glyph glyph-name="arrow-up" unicode="&#58889;" d="M767.796 256.304l-256.206 320.259-256.206-320.259z"  horiz-adv-x="1024" />

    
    <glyph glyph-name="tubiaolandengkuaishan" unicode="&#58906;" d="M512.004096 595.330048c-116.702208 0-211.321856-94.631936-211.321856-211.334144 0-116.692992 94.619648-211.31264 211.321856-211.31264s211.321856 94.619648 211.321856 211.31264C723.324928 500.698112 628.706304 595.330048 512.004096 595.330048L512.004096 595.330048zM512.004096 595.330048M512.004096 622.526464c26.43456 0 47.858688 21.424128 47.858688 47.857664l0 59.998208c0 26.43456-21.424128 47.858688-47.858688 47.858688-26.43456 0-47.86176-21.424128-47.86176-47.858688l0-59.998208C464.142336 643.950592 485.569536 622.526464 512.004096 622.526464L512.004096 622.526464zM512.004096 622.526464M512.004096 145.47968c-26.43456 0-47.857664-21.428224-47.857664-47.862784l0-59.994112c0-26.438656 21.423104-47.862784 47.857664-47.862784 26.43456 0 47.858688 21.428224 47.858688 47.862784l0 59.994112C559.862784 124.050432 538.437632 145.47968 512.004096 145.47968L512.004096 145.47968zM512.004096 145.47968M858.381312 431.857664l-59.998208 0c-26.43456 0-47.854592-21.420032-47.854592-47.86176 0-26.425344 21.420032-47.854592 47.854592-47.854592l59.998208 0c26.43456 0 47.858688 21.428224 47.858688 47.854592C906.24 410.438656 884.815872 431.857664 858.381312 431.857664L858.381312 431.857664zM858.381312 431.857664M273.473536 383.995904c0 26.441728-21.424128 47.86176-47.857664 47.86176l-59.998208 0c-26.413056 0-47.858688-21.420032-47.858688-47.86176 0-26.425344 21.445632-47.854592 47.858688-47.854592l59.998208 0C252.049408 336.142336 273.473536 357.57056 273.473536 383.995904L273.473536 383.995904zM273.473536 383.995904M748.361728 215.328768c-18.697216 18.688-48.975872 18.688-67.6864 0-18.69312-18.69824-18.69312-48.99328 0-67.683328l42.426368-42.41408c9.336832-9.34912 21.579776-14.031872 33.8432-14.031872 12.242944 0 24.482816 4.682752 33.82272 14.031872 18.706432 18.697216 18.706432 48.979968 0 67.674112L748.361728 215.328768 748.361728 215.328768zM748.361728 215.328768M275.623936 552.658944c9.35424-9.357312 21.622784-14.015488 33.865728-14.015488 12.25216 0 24.485888 4.658176 33.8432 13.99296 18.690048 18.690048 18.690048 48.989184 0.017408 67.703808l-42.422272 42.426368c-18.676736 18.66752-48.985088 18.66752-67.695616 0.038912-18.69824-18.714624-18.69824-49.014784-0.017408-67.703808L275.623936 552.658944 275.623936 552.658944zM275.623936 552.658944M275.646464 215.328768l-42.41408-42.422272c-18.69824-18.694144-18.69824-48.976896 0-67.674112 9.326592-9.34912 21.592064-14.031872 33.852416-14.031872 12.229632 0 24.485888 4.682752 33.821696 14.031872l42.426368 42.41408c18.694144 18.690048 18.694144 48.980992 0 67.683328C324.64384 234.017792 294.313984 234.017792 275.646464 215.328768L275.646464 215.328768zM275.646464 215.328768M714.52672 538.643456c12.233728 0 24.516608 4.658176 33.847296 14.015488l42.422272 42.443776c18.676736 18.690048 18.676736 48.989184-0.029696 67.703808-18.697216 18.628608-48.989184 18.66752-67.703808-0.038912l-42.405888-42.426368c-18.671616-18.714624-18.671616-49.014784 0.017408-67.703808C690.028544 543.301632 702.275584 538.643456 714.52672 538.643456L714.52672 538.643456zM714.52672 538.643456"  horiz-adv-x="1024" />

    
    <glyph glyph-name="fontunderline" unicode="&#59188;" d="M448 768l0-64.64c-12.992 0.448-38.464 2.816-48.704-6.4S384 677.184 384 644.224l0-294.4C384 302.848 388.096 266.24 400.96 240c23.936-47.872 83.52-71.744 150.336-71.744 73.28 0 125.184 49.152 137.984 79.872 11.904 28.352 17.792 63.36 17.792 120.512L707.072 599.68c0 48.704 1.92 84.16-7.936 93.632C686.848 705.088 675.008 704 642.176 704L642.176 768l188.224 0 0-66.048c-11.456-1.152-44.608 6.912-55.296-6.016-10.624-12.992-9.536-49.344-9.536-96.256l0-231.04c0-61.888-12.288-97.344-29.12-133.248-22.016-46.976-94.592-108.096-192.576-107.392-125.888 1.024-209.344 41.088-244.352 104.064C280.576 265.856 271.104 300.992 271.104 356.352L271.104 640.576c0 32.64-5.056 47.232-15.104 56.384s-51.968 6.848-64 6.4L192 768 448 768zM832 32c0 17.664-14.336 32-32 32l-576 0C206.336 64 192 49.664 192 32l0 0C192 14.336 206.336 0 224 0l576 0C817.664 0 832 14.336 832 32L832 32z"  horiz-adv-x="1024" />

    
    <glyph glyph-name="huabikuai" unicode="&#59034;" d="M996.8 804.8c-36.8 36.8-97.6 36.8-134.4 0L459.2 406.4l132.8-132.8 404.8 400C1033.6 708.8 1033.6 768 996.8 804.8zM412.8 361.6l-100.8-99.2C244.8 264 152 240 112 108.8c-30.4-70.4-112-65.6-112-65.6 168-187.2 366.4-81.6 411.2-35.2 40 40 44.8 89.6 41.6 129.6l94.4 92.8L412.8 361.6zM366.4 51.2c-32-28.8-172.8-94.4-254.4-32 0 0 28.8 22.4 51.2 67.2 52.8 139.2 182.4 118.4 182.4 118.4l44.8-44.8C388.8 161.6 422.4 102.4 366.4 51.2z"  horiz-adv-x="1025" />

    
    <glyph glyph-name="font" unicode="&#58907;" d="M446.991 664.677c62.457 0 116.523-3.038 144.567-32.052 28.048-29.014 44.38-54.806 49.006-77.368 1.439-8.064 5.311-12.094 11.622-12.094 2.872 0 5.601 1.545 8.183 4.647-1.443 38.27-12.141 94.467-21.966 159.423-40.419 0-159.473 0-276.35 0s-235.931 0-276.35 0c-9.827-64.956-20.524-121.154-21.967-159.423 2.583-3.103 5.311-4.647 8.183-4.647 6.311 0 10.183 4.030 11.622 12.094 4.625 22.563 20.958 48.355 49.006 77.368 28.044 29.014 82.109 32.052 144.567 32.052 24.805 0 16.243 0 42.384 0 0-151.843 0-410.831 0-510.655 0-24.511-7.902-29.972-21.916-44.257-14.017-14.299-32.44-21.443-55.266-21.443-13.583 0-20.371-3.056-20.371-9.153 0-6.107 3.468-9.153 10.405-9.153l129.702-1.102 129.702 1.102c6.936 0 10.405 3.047 10.405 9.153 0 6.098-6.788 9.153-20.371 9.153-22.826 0-41.248 7.145-55.266 21.443-14.013 14.285-21.916 19.746-21.916 44.257 0 99.825 0 358.812 0 510.655 26.141-0 17.58-0 42.385-0zM945.51 451.903c-23.094 0-91.126 0-157.911 0s-134.818 0-157.911 0c-5.617-38.972-11.728-72.692-12.554-95.655 1.473-1.859 3.034-2.787 4.672-2.787 3.608 0 5.822 2.417 6.642 7.255 2.642 13.536 11.979 29.014 28.005 46.423 16.026 17.41 46.921 19.23 82.607 19.23 14.175 0 9.281 0 24.222 0 0-91.105 0-246.498 0-306.393 0-14.707-4.519-17.984-12.524-26.554-8.014-8.579-18.537-12.864-31.58-12.864-7.762 0-11.643-1.834-11.643-5.494 0-3.664 1.983-5.494 5.944-5.494l74.117-0.66 74.117 0.66c3.962 0 5.945 1.83 5.945 5.494 0 3.659-3.881 5.494-11.643 5.494-13.043 0-23.567 4.286-31.58 12.864-8.004 8.57-12.524 11.847-12.524 26.554 0 59.895 0 215.288 0 306.393 14.941 0 10.047 0 24.222 0 35.687 0 66.581-1.821 82.607-19.23 16.026-17.41 25.363-32.886 28.005-46.423 0.822-4.838 3.034-7.255 6.643-7.255 1.638 0 3.2 0.928 4.672 2.787-0.822 22.963-6.933 56.683-12.55 95.655z"  horiz-adv-x="1024" />

    
    <glyph glyph-name="shangxiajiantou" unicode="&#59030;" d="M512 230.4 225.28 518.20544l19.31264 19.39456L512 269.2096 779.40736 537.6 798.72 518.20544 512 230.4z"  horiz-adv-x="1024" />

    
    <glyph glyph-name="bi" unicode="&#58900;" d="M947.69001 727.530031l-95.779414 94.694709c-13.227256 13.07069-34.668591 13.07069-47.895847 0l-69.199035-69.564355 143.671167-142.030807 69.202105 69.560262C960.917266 693.260529 960.917266 714.456271 947.69001 727.530031zM132.186601 146.930653 65.748447-17.263943c-11.0558-27.327392 16.375969-54.44603 44.019563-43.513026l166.089759 65.673745 531.393699 534.127973L663.573137 681.055556 132.186601 146.930653z"  horiz-adv-x="1024" />

    
    <glyph glyph-name="shujuguanlisvg93" unicode="&#59207;" d="M1024.508 1046.803h-1024.999c-83.012 0-150.313-67.122-150.313-149.908v-1025.807c0-82.786 67.3-149.908 150.313-149.908h1024.999c83.012 0 150.313 67.122 150.313 149.908v1025.809c-0.017 82.786-67.3 149.908-150.313 149.908zM1064.589-128.895c0-22.039-17.979-39.969-40.082-39.969h-1024.999c-22.103 0-40.083 17.93-40.083 39.969v1025.809c0 22.039 17.979 39.969 40.083 39.969h1025.001c22.103 0 40.082-17.93 40.082-26.164v-1039.613zM316.029 363.503h-160.124c-60.59 0-109.939 49.35-109.939 109.939v160.245c0 60.695 49.35 110.062 109.939 110.062h160.124c60.695 0 110.062-49.35 110.062-110.062v-160.243c0-60.59-49.364-109.94-110.062-109.94v0zM316.029-80.774h-160.124c-60.59 0-109.939 49.228-109.939 110.183v160.108c0 60.59 49.35 109.939 109.939 109.939h160.124c60.695 0 110.062-49.35 110.062-109.939v-160.124c0-60.939-49.364-110.167-110.062-110.167v0zM762.827-80.774h-160.124c-60.697 0-109.939 49.228-109.939 110.183v160.108c0 60.59 49.35 109.939 109.939 109.939h160.245c60.697 0 110.062-49.35 110.062-109.939v-160.124c-0.015-60.939-49.364-110.167-110.183-110.167v0zM841.577 363.503h-212.583c-75.046 0-136.229 61.183-136.229 136.459v212.583c0 75.169 61.183 136.229 136.229 136.229h212.703c75.169 0 136.351-61.061 136.351-136.229v-212.583c-0.015-75.276-61.198-136.459-136.473-136.459v0z"  horiz-adv-x="1024" />

    
    <glyph glyph-name="page3-copy" unicode="&#58908;" d="M444.735 681.051h409.6c18.842 0 34.133-7.464 34.133 11.378s-15.292 34.133-34.133 34.133h-409.6c-18.842 0-34.133-15.292-34.133-34.133s15.292-11.378 34.133-11.378zM296.596 159.676c3.959 5.643 6.872 10.741 8.442 14.746 9.739 18.705 14.541 36.045 14.541 51.564 0 50.267-40.755 91.022-91.022 91.022s-91.022-40.755-91.022-91.022h45.511c0 25.122 20.389 45.511 45.511 45.511s45.511-20.389 45.511-45.511c0-12.629-2.23-26.943-10.513-35.157l-125.451-102.81c-8.897-8.897-8.897-23.279 0-32.176 1.365-1.343 3.026-2.094 4.574-3.026 4.187-5.325 10.354-8.943 17.59-8.943h136.533c12.584 0 22.756 10.172 22.756 22.756s-10.172 22.756-22.756 22.756l-85.561-0 30.606 25.077c17.704 11.56 44.76 31.858 51.45 40.482 1.047 1.365 1.82 2.594 2.753 3.937l0.205 0.159c0.114 0.228 0.205 0.432 0.341 0.637zM183.046 644.073v-156.399c0-18.842 15.292-34.133 34.133-34.133 18.864 0 11.378 15.292 11.378 34.133v204.8c0 0.705 0.068 1.343 0.091 2.048 0.182 1.456 0.296 2.89 0.182 4.346 1.138 15.77 5.029 27.739-11.651 27.739-10.627 0-19.729-5.166-26.010-12.766-0.25-0.273-0.592-0.319-0.865-0.569l-32.176-32.176c-8.897-8.897-8.897-23.279-0.023-32.176 6.758-6.758 16.68-8.329 24.94-4.847zM854.335 521.762h-409.6c-18.842 0-34.133-15.292-34.133-34.133s15.292-11.378 34.133-11.378h409.6c18.842 0 34.133-7.464 34.133 11.378s-15.292 34.133-34.133 34.133zM854.335 316.962h-409.6c-18.842 0-34.133-15.292-34.133-34.133s15.292-11.378 34.133-11.378h409.6c18.842 0 34.133-7.464 34.133 11.378s-15.292 34.133-34.133 34.133zM854.335 112.162h-409.6c-18.842 0-34.133-15.292-34.133-34.133s15.292-11.378 34.133-11.378h409.6c18.842 0 34.133-7.464 34.133 11.378s-15.292 34.133-34.133 34.133z"  horiz-adv-x="1024" />

    
    <glyph glyph-name="shangxiajiantou-copy" unicode="&#58901;" d="M512 537.601l286.72-287.805-19.313-19.395-267.407 268.39-267.407-268.39-19.313 19.395 286.72 287.805z"  horiz-adv-x="1024" />

    
    <glyph glyph-name="zitizhonghuaxian-copy" unicode="&#58909;" d="M243.2 6.4c0 38.4 6.4 70.4 6.4 108.8 0 32 0 64 0 96v32l70.4 0v-19.2c0-70.4 19.2-121.6 51.2-153.6 25.6-44.8 76.8-64 140.8-64 51.2 0 96 12.8 128 38.4 32 25.6 44.8 64 44.8 102.4 0 25.6-6.4 44.8-12.8 64-6.4 19.2-19.2 32-38.4 44.8-25.6 19.2-64 38.4-121.6 64-19.2 12.8-32 19.2-44.8 25.6-83.2 38.4-140.8 76.8-172.8 108.8-32 38.4-44.8 83.2-44.8 134.4 0 70.4 25.6 121.6 76.8 166.4 51.2 44.8 121.6 64 204.8 64 32 0 70.4-6.4 102.4-12.8 38.4-6.4 76.8-19.2 121.6-32 0-19.2 0-38.4-6.4-57.6 0-19.2 0-44.8 0-64 0-6.4 0-19.2 0-32 0-12.8 0-25.6 0-32h-64l-0 6.4c0 51.2-12.8 96-38.4 121.6-32 32-70.4 44.8-121.6 44.8-51.2 0-89.6-12.8-121.6-38.4-32-25.6-44.8-51.2-44.8-89.6 0-32 12.8-57.6 25.6-76.8 19.2-19.2 51.2-44.8 108.8-64 12.8-6.4 32-12.8 57.6-25.6 83.2-38.4 134.4-64 147.2-76.8 32-25.6 51.2-51.2 70.4-83.2 12.8-32 19.2-64 19.2-96 0-76.8-25.6-140.8-76.8-185.6-51.2-44.8-121.6-70.4-211.2-70.4-32 0-64 6.4-102.4 12.8-32 0-83.2 12.8-153.6 38.4zM140.8 428.8h748.8v-57.6h-748.8v57.6z"  horiz-adv-x="1024" />

    
    <glyph glyph-name="baocun" unicode="&#59284;" d="M-2490.0608-236.19072M902.87104 894.47936l-93.19936 0L214.35392 894.47936 121.13408 894.47936c-65.95072 0-119.6032-53.66272-119.6032-119.62368l0-781.72672c0-65.96096 53.65248-119.60832 119.60832-119.60832l781.73184 0c65.95072 0 119.59808 53.65248 119.59808 119.60832L1022.46912 774.85568C1022.46912 840.81664 968.82176 894.47936 902.87104 894.47936zM771.27168 817.67936l0-157.20448L252.75392 660.47488 252.75392 817.67936 771.27168 817.67936zM281.984-47.79008l0 320.84992 460.03712 0 0-320.84992L281.984-47.79008zM945.66912-6.87104c0-23.60832-19.2-42.80832-42.79808-42.80832l-84.04992 0 0 335.5392c0 35.29216-28.70784 64-64 64L269.184 349.85984c-35.29216 0-64-28.70784-64-64l0-335.5392L121.1392-49.67936c-23.6032 0-42.80832 19.2-42.80832 42.80832L78.33088 774.85568c0 23.61344 19.20512 42.82368 42.8032 42.82368l54.81984 0 0-195.60448c0-21.20704 17.19296-38.4 38.4-38.4l595.31264 0c21.21216 0 38.4 17.19296 38.4 38.4L848.06656 817.67936l54.79936 0c23.59808 0 42.79808-19.21024 42.79808-42.82368L945.664-6.87104zM606.72 202.24 408.74496 202.24c-21.20704 0-38.4-17.18784-38.4-38.4s17.19296-38.4 38.4-38.4L606.72 125.44c21.21216 0 38.4 17.18784 38.4 38.4S627.93216 202.24 606.72 202.24zM606.72 79.36 408.74496 79.36c-21.20704 0-38.4-17.18784-38.4-38.4s17.19296-38.4 38.4-38.4L606.72 2.56c21.21216 0 38.4 17.18784 38.4 38.4S627.93216 79.36 606.72 79.36z"  horiz-adv-x="1024" />

    
    <glyph glyph-name="diaoseban" unicode="&#58910;" d="M617.557616 348.478995c17.382902-153.09377-208.774931-198.331068-278.366915-205.287503 10.443863 107.87387-3.485381 288.806685 167.007665 288.806685-17.382902 10.440793 27.839045 111.326505 73.059969 163.519214C638.425899 873.883283 415.740144 786.895093 318.307068 748.628558-88.79893 449.396429 193.038016 139.705088 206.96419 122.323209c302.81677-281.450137 646.14214 180.407859 549.775348 327.074244C746.266 443.111283 659.292136 351.964376 617.557616 348.478995L617.557616 348.478995zM447.048197 703.390237c36.040844 0 65.23884-29.213345 65.23884-65.23577 0-36.041868-29.199019-65.239863-65.23884-65.239863-36.036751 0-65.237817 29.197996-65.237817 65.239863C381.810381 674.176892 411.010423 703.390237 447.048197 703.390237L447.048197 703.390237zM238.273267 259.755278c-36.022425 0-65.236793 29.211299-65.236793 65.234747 0 36.040844 29.213345 65.24191 65.236793 65.24191 36.040844 0 65.237817-29.201066 65.237817-65.24191C303.512107 288.968623 274.315134 259.755278 238.273267 259.755278L238.273267 259.755278zM290.468023 451.130933c-36.022425 0-65.237817 29.199019-65.237817 65.237817 0 36.038798 29.215392 65.237817 65.237817 65.237817 36.040844 0 65.25419-29.199019 65.25419-65.237817C355.722212 480.329952 326.508867 451.130933 290.468023 451.130933L290.468023 451.130933zM606.527398 381.539972c98.592482 40.58944 318.954309 432.031691 318.954309 432.031691l-20.293185 17.397229c0 0-330.435805-287.330054-364.875175-401.479861C552.158117 421.343513 591.408049 390.183839 606.527398 381.539972L606.527398 381.539972zM539.84979 427.937698c0.144286 0.511653 0.308015 1.033539 0.464581 1.552356C536.257985 432.278563 535.406594 432.376801 539.84979 427.937698L539.84979 427.937698zM438.342931 375.746012c-49.282427-37.692461-34.796504-150.788262-60.885695-191.375655 55.090712 40.587394 136.288013 29.001521 179.772386 101.473089C571.731918 326.449259 545.642726 427.937698 438.342931 375.746012L438.342931 375.746012z"  horiz-adv-x="1024" />

    
    <glyph glyph-name="beijing1" unicode="&#58911;" d="M852.700169 445.762338l-308.063406 326.943227c-25.096346 25.096346-62.855987 25.096346-88.067454 0l-91.175717-94.28398L98.31321 401.671051c-25.096346-25.096346-25.096346-65.96425 0-94.28398l314.395053-326.943227c25.096346-25.096346 62.855987-25.096346 88.067454 0l355.262957 370.919393c9.43991 12.548173 15.771557 28.31973 15.771557 40.867903C871.579989 411.110961 868.471726 429.990781 852.700169 445.762338zM265.353569 438.624845l232.544126 246.819112 234.961664-246.819112L265.353569 438.624845zM189.488926 398.562788M1025.611692 90.499382c-6.331647 69.187634-125.711973 264.08724-125.711973 264.08724s-116.272063-185.459696-125.711973-264.08724c-15.771557-128.935357 62.855987-144.591793 125.711973-144.591793S1035.051602-41.544238 1025.611692 90.499382L1025.611692 90.499382M1025.611692 90.499382M373.682293 512.417313 185.92018 700.179427c-15.541315 15.541315-15.541315 40.867903 0 56.409219l8.749185 8.749185c15.541315 15.541315 40.867903 15.541315 56.409219 0l187.762114-187.762114c15.541315-15.541315 15.541315-40.867903 0-56.409219l-8.749185-8.749185C414.665318 496.875998 389.223609 496.875998 373.682293 512.417313z"  horiz-adv-x="1106" />

    
    <glyph glyph-name="bold1" unicode="&#59306;" d="M736.702 357.749c21.265-15.155 33.81-35 47.87-59.535s21.09-54.305 21.09-89.305c0-35.72-7.37-66.75-22.12-93.09-14.75-26.34-28.835-47.985-52.5-64.945-22.98-16.595-43.84-29.225-72.82-37.885-28.985-8.66-58.91-12.99-89.775-12.99L222.721-0.001l0 38.43c8.23 0.72 30.475 2.25 46.252 4.6 15.778 2.34 27.095 5.14 33.955 8.385 10.633 5.055 18.178 11.815 22.638 20.295 4.458 8.48 6.688 19.395 6.688 32.75L332.254 656.507c0 12.268-1.973 23.092-5.917 32.473-3.942 9.382-11.745 16.96-23.408 22.732-10.29 5.413-21.777 9.562-34.47 12.447-12.69 2.888-33.562 4.69-42.137 5.413L226.322 768l336.98 0c26.065 0 51.021-2.705 74.855-8.118 23.835-5.412 46.56-14.975 68.165-28.685 20.24-12.63 26.63-29.768 39.665-51.417 13.035-21.65 19.55-47.99 19.55-79.02 0-27.06-4.63-51.146-13.89-72.253s-17.175-39.237-33.98-54.393c-15.775-14.435-28.75-26.61-49.155-36.535-20.41-9.92-42.445-17.59-66.11-23l0-4.873c20.92-2.525 44.331-8.027 70.226-16.507C698.522 384.721 716.467 372.903 736.702 357.749 736.702 357.749 716.467 372.903 736.702 357.749zM617.832 473.571c12.69 15.515 21.525 32.473 26.5 50.875 4.97 18.403 7.46 40.233 7.46 65.49 0 42.215-10.98 75.32-32.93 99.315-21.95 23.993-56.59 35.99-103.92 35.99-10.978 0-24.78-0.27-41.415-0.812-16.635-0.54-40.853-0.99-52.17-1.352l0-294.968 75.578 0c28.128 0 52.218 3.79 72.283 11.365C589.282 447.051 605.487 458.419 617.832 473.571 617.832 473.571 605.487 458.419 617.832 473.571zM688.832 228.398c0 45.46-14.49 82.805-43.47 112.03-28.985 29.23-70.4 43.84-124.25 43.84-21.95 0-40.47-0.27-55.56-0.81-15.093-0.542-36.65-0.995-44.195-1.355l0-270.616c0-22.73 8.745-39.87 26.238-51.415s52.083-17.315 83.298-17.315c51.1 0 90.2 15.69 117.295 47.085C675.282 121.233 688.832 167.418 688.832 228.398 688.832 228.398 688.832 167.418 688.832 228.398z"  horiz-adv-x="1024" />

    
    <glyph glyph-name="font1" unicode="&#59309;" d="M651.212 191.508 307.523 191.508l-46.205-106.2c-14.128-32.79-24.158-57.205-24.158-73.44 0-12.85 6.073-24.1 18.345-33.88 12.208-9.71 38.67-16.105 79.32-18.915l0-23.075L69.12-64.002l0 23.075c35.283 6.2 58.038 14.255 68.455 24.225 21.158 19.875 44.553 60.335 70.311 121.375L504.656 799l1.38 0 293.641-701.872c23.65-56.37 45.125-93.061 64.43-109.805 19.305-16.81 46.145-26.205 80.535-28.25l0-23.075L632.237-64.002l0 23.075c33.625 1.595 56.315 7.155 68.135 16.745 11.83 9.525 17.71 21.155 17.71 34.835 0 18.215-10.31 47.105-26.865 86.476L651.212 191.508zM624.822 255.528 481.646 605.459 334.826 255.528 624.822 255.528z"  horiz-adv-x="1024" />

    
    <glyph glyph-name="superscript" unicode="&#59156;" d="M585.714286 113.714286v-95.428572H444l-90.857143 144-13.714286 24q-4.571429 5.142857-6.285714 12h-1.714286q-0.571429-1.714286-1.428571-3.714285t-2-4.571429-1.714286-3.714286q-5.714286-11.428571-14.285714-25.142857l-88.571429-142.857143H76v95.428572h73.142857l112.571429 166.285714-105.714286 155.428571H77.714286V531.428571h157.714285l79.428572-130.285714q1.142857-2.285714 13.142857-24 4.571429-5.142857 6.285714-12h1.714286q1.714286 5.142857 6.285714 12l14.285715 24 80 130.285714h146.857142v-96H512l-105.142857-152.571428 116.571428-169.142857h62.285715z m364 388v-117.714286h-293.714286l-1.714286 15.428571q-2.285714 16-2.285714 26.285715 0 36.571429 14.857143 66.857143t37.142857 49.428571 48 37.142857 48 31.142857 37.142857 30.857143 14.857143 36.571429q0 21.714286-16.857143 35.714285T794.857143 727.428571q-29.142857 0-55.428572-22.285714-8-6.285714-20.571428-21.714286l-60 52.571429q14.857143 21.142857 36 37.714286 47.428571 37.142857 107.428571 37.142857 62.857143 0 101.714286-34t38.857143-90.571429q0-32-14-58.857143t-35.428572-43.714285T846.857143 550.285714t-46.857143-28.857143-37.428571-29.428571-17.428572-36h132.571429v45.714286h72z"  horiz-adv-x="1024" />

    
    <glyph glyph-name="queding" unicode="&#58912;" d="M869.373317 696.690652L422.664346 249.98168 154.62566 518.019343 65.290005 428.683688l268.038686-268.038685 89.335655-89.335655L958.708971 607.354997z"  horiz-adv-x="1024" />

    
    <glyph glyph-name="indent_increase" unicode="&#58963;" d="M896 640h-768a25.6 25.6 0 0 0 0 51.2h768a25.6 25.6 0 0 0 0-51.2zM896 486.4h-409.6a25.6 25.6 0 0 0 0 51.2h409.6a25.6 25.6 0 0 0 0-51.2zM896 332.8h-409.6a25.6 25.6 0 0 0 0 51.2h409.6a25.6 25.6 0 0 0 0-51.2zM896 179.2h-409.6a25.6 25.6 0 0 0 0 51.2h409.6a25.6 25.6 0 0 0 0-51.2zM896 25.6h-768a25.6 25.6 0 0 0 0 51.2h768a25.6 25.6 0 0 0 0-51.2zM128 179.2a25.6 25.6 0 0 0-25.6 25.6v307.2a25.6 25.6 0 0 0 40.96 20.48l204.8-153.6a25.6 25.6 0 0 0 0-40.96l-204.8-153.6a25.6 25.6 0 0 0-15.36-5.12zM153.6 460.8v-204.8l136.5504 102.4L153.6 460.8z"  horiz-adv-x="1024" />

    
    <glyph glyph-name="Italic" unicode="&#58913;" d="M550.353516 32.193469h-267.134083l14.937201 65.633836h88.266299l125.724423 542.725792h-88.267323l14.937201 65.633836h267.118733l-14.936177-65.633836H602.731444L477.023394 97.827305h88.2663L550.353516 32.193469z"  horiz-adv-x="1024" />

    
    <glyph glyph-name="indent-decrease" unicode="&#58923;" d="M896 640h-768a25.6 25.6 0 0 0 0 51.2h768a25.6 25.6 0 0 0 0-51.2zM896 486.4h-409.6a25.6 25.6 0 0 0 0 51.2h409.6a25.6 25.6 0 0 0 0-51.2zM896 332.8h-409.6a25.6 25.6 0 0 0 0 51.2h409.6a25.6 25.6 0 0 0 0-51.2zM896 179.2h-409.6a25.6 25.6 0 0 0 0 51.2h409.6a25.6 25.6 0 0 0 0-51.2zM896 25.6h-768a25.6 25.6 0 0 0 0 51.2h768a25.6 25.6 0 0 0 0-51.2zM332.8 179.2a25.6 25.6 0 0 0-15.36 5.12l-204.8 153.6a25.6 25.6 0 0 0 0 40.96l204.8 153.6a25.6 25.6 0 0 0 40.96-20.48v-307.2a25.6 25.6 0 0 0-25.6-25.6z m-162.1504 179.2L307.2 256v204.8l-136.5504-102.4z"  horiz-adv-x="1024" />

    
    <glyph glyph-name="huaban_xiangpica" unicode="&#59160;" d="M922.6 496.1c35.3 35.3 35.3 88.3 0 123.6L737.3 805l-13.2 13.2c-8.8 4.4-22.1 8.8-30.9 13.2h-35.4c-8.8 0-22.1-4.4-30.9-13.2L613.7 805 93 279.8c-35.3-35.3-35.3-88.3 0-123.6l185.4-185.4c13.2-17.7 35.3-26.5 53-26.5H861v0.4h6c17.7 0 32 14.3 32 32s-14.3 32-32 32H439.5l297.8 301.9 185.3 185.5z m-489.8-4.4l185.4-185.4c3.6-3.6 7.2-6.6 10.9-9L337.9 17 137.8 224.7l286.7 276c2.5-3 5.3-6 8.3-9z"  horiz-adv-x="1024" />

    
    <glyph glyph-name="tuichu" unicode="&#59032;" d="M902.91 404.389l-178.525 178.525c-11.286 11.286-29.855 11.286-41.142 0s-11.286-29.855 0-41.142l128.159-128.159h-401.59c-16.020 0-29.127-13.107-29.127-29.127s13.107-29.127 29.127-29.127h402.925l-129.494-129.494c-11.286-11.286-11.286-29.855 0-41.142s29.855-11.286 41.142 0l178.525 178.525c11.408 11.286 11.408 29.855 0 41.142zM641.858 130.594c-16.142 0-29.127-12.986-29.127-29.127v-32.039c0-21.36-17.476-38.836-38.836-38.836h-364.939c-21.36 0-38.836 17.476-38.836 38.836v628.295c0 21.36 17.476 38.836 38.836 38.836h364.939c21.36 0 38.836-17.476 38.836-38.836v-32.039c0-16.142 12.986-29.127 29.127-29.127s29.127 12.986 29.127 29.127v32.039c0 53.521-43.569 97.090-97.090 97.090h-364.939c-53.521 0-97.090-43.569-97.090-97.090v-628.295c0-53.521 43.569-97.090 97.090-97.090h364.939c53.521 0 97.090 43.569 97.090 97.090v32.039c0 16.020-13.107 29.127-29.127 29.127z"  horiz-adv-x="1024" />

    
    <glyph glyph-name="zhongzhi1" unicode="&#58920;" d="M336.4-50.9c-29.4 0-49.2 19.8-49.2 49.2s19.8 49.2 49.2 49.2h307.2c114 0 206.8 92.8 206.8 206.8 0 114-92.8 206.8-206.8 206.8H362.3l59.7-59.7c9.5-9.5 14.8-21.8 14.8-34.4s-5.2-24.9-14.8-34.4-21.8-14.8-34.4-14.8-24.9 5.2-34.4 14.8L209.8 475.9c-19.6 19.6-19.6 49.2 0 68.9l143.4 143.4c9.5 9.5 21.8 14.8 34.4 14.8s24.9-5.2 34.4-14.8c19.6-19.6 19.6-49.2 0-68.9l-59.7-59.7h281.3c41 0 80.9-8.1 118.5-24.1 36.3-15.4 69-37.5 97-65.6s50.1-60.7 65.6-97c16-37.6 24.1-77.5 24.1-118.5s-8.1-80.9-24.1-118.5c-15.4-36.3-37.5-69-65.6-97s-60.7-50.1-97-65.6c-37.6-16-77.5-24.1-118.5-24.1H336.4z"  horiz-adv-x="1280" />

    
    <glyph glyph-name="straight" unicode="&#59218;" d="M956.4 588.4v240h-240v-204.6l-445-445h-203.4v-240h240v205.9l443.7 443.7h204.7zM766.4 778.4h140v-140h-140v140zM258-11.2h-140v140h140v-140z"  horiz-adv-x="1024" />

    
    <glyph glyph-name="curve" unicode="&#59219;" d="M956.9 828.4h-240v-240h92.5c1.6-22.6 3.6-68.3-0.8-116.7-5.3-58.7-21.1-133.7-66.2-157.7-45.5-24.2-121.1 6.6-218.7 89-57.5 48.5-109.5 80.6-154.3 95.3-43.7 14.3-82.3 13-114.6-4-53.6-28.2-86.2-96.8-96.7-204-4.3-43.5-4-84.2-2.9-111.5h-86.9v-240h240v240h-103.1c-1.1 25.6-1.5 65 2.6 106.6 6.1 61.5 23.1 140 70.2 164.7 45.3 23.8 119.1-5.7 213.5-85.3 59.4-50.1 112.7-83.3 158.5-98.5 44.5-14.9 83.5-13.6 116 3.6 52.2 27.7 83.3 94.4 92.6 198.1 4.4 49.5 2.7 95.2 1.1 120.4h97.4v240zM258.3-11.2h-140v140h140v-140zM906.9 638.4h-140v140h140v-140z"  horiz-adv-x="1024" />

    
    <glyph glyph-name="dengfenqiangti" unicode="&#58922;" d="M512 486.4c-57.344 0-102.4-45.056-102.4-102.4s45.056-102.4 102.4-102.4 102.4 45.056 102.4 102.4-45.056 102.4-102.4 102.4z m471.04-61.44H716.8c-12.288 0-20.48-8.192-20.48-20.48v-40.96c0-12.288 8.192-20.48 20.48-20.48h266.24c12.288 0 20.48 8.192 20.48 20.48v40.96c0 12.288-8.192 20.48-20.48 20.48z m-675.84 0H40.96c-12.288 0-20.48-8.192-20.48-20.48v-40.96c0-12.288 8.192-20.48 20.48-20.48h266.24c12.288 0 20.48 8.192 20.48 20.48v40.96c0 12.288-8.192 20.48-20.48 20.48z"  horiz-adv-x="1024" />

    
    <glyph glyph-name="hebingduanqiang" unicode="&#58932;" d="M512 203.776m-61.44 0a61.44 61.44 0 1 1 122.88 0 61.44 61.44 0 1 1-122.88 0ZM614.4 185.344h204.8v40.96H614.4v-40.96z m-409.6 0h204.8v40.96H204.8v-40.96z m716.8 81.92c-34.816 0-61.44-26.624-61.44-61.44s26.624-61.44 61.44-61.44 61.44 26.624 61.44 61.44c0 32.768-26.624 61.44-61.44 61.44z m-819.2 0c-34.816 0-61.44-26.624-61.44-61.44s26.624-61.44 61.44-61.44 61.44 26.624 61.44 61.44c0 32.768-26.624 61.44-61.44 61.44zM512 633.856m-30.72 0a30.72 30.72 0 1 1 61.44 0 30.72 30.72 0 1 1-61.44 0ZM615.860664 589.65057a30.72 30.72 0 1 1 15.900806 59.34676 30.72 30.72 0 1 1-15.900806-59.34676ZM712.318503 550.27634a30.72 30.72 0 1 1 30.72 53.2086 30.72 30.72 0 1 1-30.72-53.2086ZM793.667512 486.475212a30.72 30.72 0 1 1 43.443883 43.445399 30.72 30.72 0 1 1-43.443883-43.445399ZM858.582063 403.741302a30.72 30.72 0 1 1 53.2086 30.72 30.72 30.72 0 1 1-53.2086-30.72ZM897.972142 308.517338a30.72 30.72 0 1 1 59.346761 15.900807 30.72 30.72 0 1 1-59.346761-15.900807ZM88.251739 286.198408a30.72 30.72 0 1 1 15.900806 59.34676 30.72 30.72 0 1 1-15.900806-59.34676ZM124.92393 392.493129a30.72 30.72 0 1 1 30.72 53.208601 30.72 30.72 0 1 1-30.72-53.208601ZM186.859642 487.923392a30.72 30.72 0 1 1 43.443882 43.445399 30.72 30.72 0 1 1-43.443882-43.445399ZM270.72434 561.250777a30.72 30.72 0 1 1 53.2086 30.72 30.72 30.72 0 1 1-53.2086-30.72ZM371.885805 611.772832a30.72 30.72 0 1 1 59.346761 15.900806 30.72 30.72 0 1 1-59.346761-15.900806ZM512 633.856m-30.72 0a30.72 30.72 0 1 1 61.44 0 30.72 30.72 0 1 1-61.44 0Z"  horiz-adv-x="1024" />

    


  </font>
</defs>
</svg>
